# AST/ASF file generated using VICON BodyLanguage
# -----------------------------------------------
:version 1.10
:name VICON
:units
  mass 1.0
  length 0.45
  angle deg
:documentation
   .ast/.asf automatically generated from VICON data using
   VICON BodyBuilder and BodyLanguage model FoxedUp or BRILLIANT.MOD
:root
   order TX TY TZ RX RY RZ
   axis XYZ
   position 0 0 0  
   orientation 0 0 0 
:bonedata
  begin
     id 1 
     name lhipjoint
     direction 0.627457 -0.725269 0.283342 
     length 2.53237 
     axis 0 0 0  XYZ
  end
  begin
     id 2 
     name lfemur
     direction 0.34202 -0.939693 0  
     length 7.32496  
     axis 0 0 20  XYZ
    dof rx ry rz
    limits (-160.0 20.0)
           (-70.0 70.0)
           (-60.0 70.0)
  end
  begin
     id 3 
     name ltibia
     direction 0.34202 -0.939693 0   
     length 7.69674   
     axis 0 0 20   XYZ
    dof rx
    limits (-10.0 170.0)
  end
  begin
     id 4 
     name lfoot
     direction 0.127289 -0.349722 0.928166   
     length 1.8612   
     axis -90 7.62852e-016 20   XYZ
    dof rx rz
    limits (-45.0 90.0)
           (-70.0 20.0)
  end
  begin
     id 5 
     name ltoes
     direction 1.53561e-011 -4.21864e-011 1   
     length 0.925608   
     axis -90 7.62852e-016 20   XYZ
    dof rx
    limits (-90.0 20.0)
  end
  begin
     id 6 
     name rhipjoint
     direction -0.609094 -0.738725 0.288599   
     length 2.48624  
     axis 0 0 0  XYZ 
  end
  begin
     id 7 
     name rfemur
     direction -0.34202 -0.939693 0   
     length 7.44259   
     axis 0 0 -20   XYZ
    dof rx ry rz
    limits (-160.0 20.0)
           (-70.0 70.0)
           (-70.0 60.0)
  end
  begin
     id 8 
     name rtibia
     direction -0.34202 -0.939693 0   
     length 7.7781   
     axis 0 0 -20   XYZ
    dof rx
    limits (-10.0 170.0)
 end
 begin
     id 9 
     name rfoot
     direction -0.107015 -0.294021 0.949789   
     length 2.14741  
     axis -90 -7.62852e-016 -20   XYZ
    dof rx rz
    limits (-45.0 90.0)
           (-20.0 70.0)
  end
  begin
     id 10 
     name rtoes
     direction -1.53497e-011 -4.21924e-011 1   
     length 1.0706   
     axis -90 -7.62852e-016 -20   XYZ
    dof rx
    limits (-90.0 20.0)
  end
  begin
     id 11 
     name lowerback
     direction -0.0142066 0.998112 -0.0597545   
     length 1.86627   
     axis 0 0 0   XYZ
    dof rx ry rz
    limits (-20.0 45.0)
           (-30.0 30.0)
           (-30.0 30.0)
  end
  begin
     id 12 
     name upperback
     direction 0.00547294 0.999744 0.0219437   
     length 1.86272   
     axis 0 0 0   XYZ
    dof rx ry rz
    limits (-20.0 45.0)
           (-30.0 30.0)
           (-30.0 30.0)
  end
  begin
     id 13 
     name thorax
     direction 0.0116162 0.998704 0.0495538   
     length 1.8703   
     axis 0 0 0   XYZ
    dof rx ry rz
    limits (-20.0 45.0)
           (-30.0 30.0)
           (-30.0 30.0)
  end
  begin
     id 14 
     name lowerneck
     direction -0.0106574 0.998739 0.0490586   
     length 1.8074   
     axis 0 0 0   XYZ
    dof rx ry rz
    limits (-20.0 45.0)
           (-30.0 30.0)
           (-30.0 30.0)
  end
  begin
     id 15 
     name upperneck
     direction 0.030527 0.976587 -0.212944   
     length 1.80681   
     axis 0 0 0   XYZ
    dof rx ry rz
    limits (-20.0 45.0)
           (-30.0 30.0)
           (-30.0 30.0)
  end
  begin
     id 16
     name head
     direction 0.00869225 0.997035 -0.0764531  
     length 1.8313  
     axis 0 0 0   XYZ
    dof rx ry rz
    limits (-20.0 45.0)
           (-30.0 30.0)
           (-30.0 30.0)
  end
  begin
     id 17 
     name lclavicle
     direction 0.915958 0.399447 0.0382386  
     length 3.78965  
     axis 0 0 0   XYZ
    dof ry rz
    limits (-20.0 10.0)
           (0.0 20.0)
  end
  begin
     id 18 
     name lhumerus
     direction 1 -4.48967e-011 3.19303e-027   
     length 4.78095   
     axis -180 -30 -90   XYZ
    dof rx ry rz
    limits (-60.0 90.0)
           (-90.0 90.0)
           (-90.0 90.0)
  end
  begin
     id 19
     name lradius
     direction 1 -4.48967e-011 -3.77974e-027   
     length 3.58615   
     axis -180 -30 -90   XYZ
    dof rx
    limits (-10.0 170.0)
  end
  begin
     id 20
     name lwrist
     direction 1 -4.48927e-011 1.2807e-027   
     length 1.79307   
     axis 1.91374e-015 90 90   XYZ
    dof ry
    limits (-180.0 0.0)
 end
  begin
     id 21 
     name lhand
     direction 1 -4.49036e-011 2.5614e-027   
     length 0.659812   
     axis -1.63439e-015 90 90   XYZ
    dof rx rz
    limits (-90.0 90.0)
           (-45.0 45.0)
  end
  begin
     id 22 
     name lfingers
     direction 1 -4.49052e-011 5.1228e-027   
     length 0.531957   
     axis -3.26879e-015 90 90   XYZ
    dof rx
    limits (0.0 90.0)
  end
  begin
     id 23
     name lthumb
     direction 0.707107 -6.35012e-011 0.707107   
     length 0.763787   
     axis -90 45 2.85299e-015   XYZ
    dof rx rz
    limits (-45.0 45.0)
           (-45.0 45.0)
  end
  begin
     id 24 
     name rclavicle
     direction -0.895351 0.435135 0.0948887   
     length 3.70497  
     axis 0 0 0   XYZ 
    dof ry rz
    limits (-10.0 20.0)
           (-20.0 0.0)
  end
  begin
     id 25 
     name rhumerus
     direction -1 -4.48971e-011 2.38946e-027  
     length 4.48913   
     axis -180 30 90   XYZ
    dof rx ry rz
    limits (-90.0 60.0)
           (-90.0 90.0)
           (-90.0 90.0)
  end
  begin
     id 26 
     name rradius
     direction -1 -4.4895e-011 4.38668e-027   
     length 3.7051   
     axis -180 30 90   XYZ
    dof rx
    limits (-10.0 170.0)
  end
  begin
     id 27 
     name rwrist
     direction -1 -4.49007e-011 1.2807e-027   
     length 1.85255   
     axis 1.91374e-015 -90 -90   XYZ
    dof ry
    limits (-180.0 0.0)
  end
  begin
     id 28
     name rhand
     direction -1 -4.48851e-011 2.5614e-027   
     length 0.449136   
     axis -1.63439e-015 -90 -90   XYZ
    dof rx rz
    limits (-90.0 90.0)
           (-45.0 45.0)
  end
  begin
     id 29
     name rfingers
     direction -1 -4.49128e-011 5.1228e-027   
     length 0.362105   
     axis -3.26879e-015 -90 -90   XYZ
    dof rx
    limits (0.0 90.0)
  end
  begin
     id 30
     name rthumb
     direction -0.707107 -6.34851e-011 0.707107   
     length 0.519912   
     axis -90 -45 -2.85299e-015   XYZ
    dof rx rz
    limits (-45.0 45.0)
           (-45.0 45.0)
  end
:hierarchy
  begin
    root lhipjoint rhipjoint lowerback
    lhipjoint lfemur
    lfemur ltibia
    ltibia lfoot
    lfoot ltoes
    rhipjoint rfemur
    rfemur rtibia
    rtibia rfoot
    rfoot rtoes
    lowerback upperback
    upperback thorax
    thorax lowerneck lclavicle rclavicle
    lowerneck upperneck
    upperneck head
    lclavicle lhumerus
    lhumerus lradius
    lradius lwrist
    lwrist lhand lthumb
    lhand lfingers
    rclavicle rhumerus
    rhumerus rradius
    rradius rwrist
    rwrist rhand rthumb
    rhand rfingers
  end

#!OML:ASF I:\Actors\actors\Patient Classification 2\Patient 1\Session 1\actor1.ASF
:FULLY-SPECIFIED
:DEGREES
57
root -0.788658 18.6687 6.07213 2.13189 -0.606918 -3.089
lowerback 9.57919 0.409167 0.942351
upperback -3.68619 0.700296 0.285862
thorax -9.30948 0.29264 -0.348334
lowerneck -9.6484 -1.81245 -1.44219
upperneck 20.7161 -2.94116 3.19715
head 8.06082 -1.20334 1.01437
rclavicle 1.2188e-014 3.97569e-016
rhumerus -49.242 -3.71583 -86.4563
rradius 42.6528
rwrist 16.707
rhand -5.23786 -34.9556
rfingers 7.12502
rthumb 20.5649 -63.8863
lclavicle 1.2188e-014 3.97569e-016
lhumerus -43.9136 2.50141 88.9387
lradius 39.1372
lwrist -12.5315
lhand -3.28715 -25.5086
lfingers 7.12502
lthumb 22.4384 3.20805
rfemur 7.5734 4.27701 17.7028
rtibia 1.11319e-014
rfoot -18.9574 -12.2316
rtoes -9.22472
lfemur -6.22808 -3.91683 -10.7158
ltibia 24.0227
lfoot -23.1326 12.3314
ltoes -55.8409
58
root -0.788427 18.669 6.07327 2.12297 -0.599524 -3.08171
lowerback 9.56813 0.403925 0.935215
upperback -3.68343 0.692051 0.284876
thorax -9.3001 0.289105 -0.343817
lowerneck -9.60985 -1.81241 -1.43145
upperneck 20.6718 -2.93621 3.171
head 8.03831 -1.20352 1.0046
rclavicle 1.55922e-015 -1.98785e-015
rhumerus -49.2599 -3.71008 -86.4556
rradius 42.6618
rwrist 16.7158
rhand -5.25782 -34.9786
rfingers 7.12502
rthumb 20.5457 -63.9114
lclavicle 1.55922e-015 -1.98785e-015
lhumerus -43.9361 2.44234 88.9881
lradius 39.1747
lwrist -12.4623
lhand -3.33241 -25.5608
lfingers 7.12502
lthumb 22.3949 3.16106
rfemur 7.58532 4.26972 17.6952
rtibia -9.54166e-015
rfoot -18.9375 -12.2606
rtoes -9.51898
lfemur -6.2217 -3.89452 -10.7234
ltibia 24.0289
lfoot -23.1085 12.3171
ltoes -55.854
59
root -0.78802 18.6693 6.0743 2.11607 -0.607179 -3.11373
lowerback 9.56421 0.401016 0.965193
upperback -3.68038 0.692867 0.293901
thorax -9.29427 0.288069 -0.351171
lowerneck -9.61602 -1.81119 -1.3934
upperneck 20.6749 -2.93343 3.13308
head 8.03928 -1.20282 0.985872
rclavicle -2.14625e-014 -1.59028e-015
rhumerus -49.2702 -3.6998 -86.4602
rradius 42.6727
rwrist 16.7266
rhand -5.23481 -35.0598
rfingers 7.12502
rthumb 20.5678 -63.9902
lclavicle -2.14625e-014 -1.59028e-015
lhumerus -43.9659 2.37175 89.0421
lradius 39.2351
lwrist -12.3741
lhand -3.36409 -25.6118
lfingers 7.12502
lthumb 22.3645 3.11374
rfemur 7.59368 4.27855 17.7327
rtibia 1.11319e-014
rfoot -18.9228 -12.2966
rtoes -9.78149
lfemur -6.212 -3.87581 -10.6898
ltibia 24.0352
lfoot -23.1086 12.3131
ltoes -55.8569
60
root -0.787528 18.669 6.07494 2.11984 -0.614233 -3.15237
lowerback 9.5717 0.398101 1.00216
upperback -3.68904 0.695404 0.308843
thorax -9.30793 0.287507 -0.356604
lowerneck -9.63454 -1.80667 -1.38356
upperneck 20.6944 -2.92704 3.12152
head 8.04868 -1.19977 0.980895
rclavicle -1.91082e-014 3.57812e-015
rhumerus -49.2685 -3.68431 -86.4536
rradius 42.6661
rwrist 16.733
rhand -5.19262 -35.1095
rfingers 7.12502
rthumb 20.6083 -64.0355
lclavicle -1.91082e-014 3.57812e-015
lhumerus -43.9884 2.36637 89.068
lradius 39.2699
lwrist -12.3294
lhand -3.2926 -25.597
lfingers 7.12502
lthumb 22.4331 3.12028
rfemur 7.59391 4.28662 17.7744
rtibia 3.33958e-014
rfoot -18.9538 -12.2779
rtoes -9.51405
lfemur -6.21472 -3.87134 -10.6478
ltibia 24.0448
lfoot -23.1218 12.312
ltoes -55.8819
61
root -0.787385 18.6677 6.07571 2.12165 -0.606463 -3.16709
lowerback 9.5781 0.39642 1.02653
upperback -3.70207 0.696745 0.310016
thorax -9.32571 0.286595 -0.369422
lowerneck -9.62614 -1.80791 -1.374
upperneck 20.6966 -2.92854 3.11179
head 8.04763 -1.20075 0.975987
rclavicle 7.37988e-015 -4.77083e-015
rhumerus -49.2763 -3.69144 -86.4438
rradius 42.6476
rwrist 16.7305
rhand -5.14239 -35.0686
rfingers 7.12502
rthumb 20.6566 -63.9894
lclavicle 7.37988e-015 -4.77083e-015
lhumerus -44.0012 2.37395 89.0686
lradius 39.2679
lwrist -12.3311
lhand -3.23985 -25.5858
lfingers 7.12502
lthumb 22.4838 3.12527
rfemur 7.59966 4.27945 17.7846
rtibia -1.11319e-014
rfoot -18.9955 -12.1964
rtoes -9.03275
lfemur -6.21724 -3.88763 -10.6288
ltibia 24.0488
lfoot -23.1453 12.2924
ltoes -55.8527
62
root -0.787042 18.6672 6.07699 2.12132 -0.600232 -3.15841
lowerback 9.57666 0.397652 1.02874
upperback -3.7145 0.697422 0.294317
thorax -9.33822 0.28613 -0.387558
lowerneck -9.62485 -1.8117 -1.33293
upperneck 20.7138 -2.94039 3.10481
head 8.05277 -1.20373 0.965651
rclavicle -1.01318e-014 4.37326e-015
rhumerus -49.3047 -3.72214 -86.4501
rradius 42.6499
rwrist 16.7195
rhand -5.12192 -35.0262
rfingers 7.12502
rthumb 20.6763 -63.9448
lclavicle -1.01318e-014 4.37326e-015
lhumerus -44.0243 2.33657 89.0738
lradius 39.272
lwrist -12.3015
lhand -3.2598 -25.5413
lfingers 7.12502
lthumb 22.4646 3.17215
rfemur 7.60573 4.27318 17.7689
rtibia 4.77083e-015
rfoot -19.0252 -12.1441
rtoes -8.81387
lfemur -6.20663 -3.91613 -10.6424
ltibia 24.0378
lfoot -23.1512 12.3065
ltoes -55.8327
63
root -0.786242 18.6676 6.07798 2.12387 -0.601313 -3.13198
lowerback 9.58492 0.397508 1.0001
upperback -3.72991 0.693029 0.287166
thorax -9.36021 0.285293 -0.378428
lowerneck -9.62556 -1.81324 -1.34244
upperneck 20.7312 -2.94782 3.13449
head 8.05948 -1.20498 0.976381
rclavicle -2.01145e-014 -4.37326e-015
rhumerus -49.3337 -3.73772 -86.4352
rradius 42.6473
rwrist 16.7208
rhand -5.12685 -34.9833
rfingers 7.12502
rthumb 20.6715 -63.9025
lclavicle -2.01145e-014 -4.37326e-015
lhumerus -44.0331 2.33845 89.0947
lradius 39.2505
lwrist -12.2726
lhand -3.28514 -25.4756
lfingers 7.12502
lthumb 22.4403 3.24074
rfemur 7.60503 4.27324 17.7401
rtibia 4.13472e-014
rfoot -19.0133 -12.1919
rtoes -9.13388
lfemur -6.19186 -3.94672 -10.6798
ltibia 24.0194
lfoot -23.1612 12.3275
ltoes -55.8162
64
root -0.785381 18.6676 6.07906 2.11931 -0.594819 -3.10465
lowerback 9.60275 0.390053 0.98266
upperback -3.74431 0.680394 0.279545
thorax -9.38672 0.279757 -0.374744
lowerneck -9.59881 -1.80795 -1.37021
upperneck 20.7241 -2.94185 3.16469
head 8.05295 -1.20176 0.991856
rclavicle -3.08116e-015 1.19271e-015
rhumerus -49.3442 -3.7318 -86.4253
rradius 42.6227
rwrist 16.6922
rhand -5.1508 -35.011
rfingers 7.12502
rthumb 20.6485 -63.9326
lclavicle -3.08116e-015 1.19271e-015
lhumerus -44.0184 2.401 89.0819
lradius 39.1881
lwrist -12.3075
lhand -3.25304 -25.4519
lfingers 7.12502
lthumb 22.4711 3.26077
rfemur 7.61425 4.26593 17.7114
rtibia -3.18055e-014
rfoot -18.9923 -12.2395
rtoes -9.40738
lfemur -6.17491 -3.9844 -10.7153
ltibia 24.0027
lfoot -23.1928 12.3285
ltoes -55.7435
65
root -0.784814 18.6677 6.08061 2.11807 -0.583805 -3.09507
lowerback 9.59292 0.383219 0.991838
upperback -3.74699 0.671219 0.266738
thorax -9.38373 0.274327 -0.391883
lowerneck -9.58501 -1.80344 -1.35522
upperneck 20.7145 -2.93778 3.16327
head 8.04688 -1.19906 0.989366
rclavicle 1.13059e-014 -3.97569e-015
rhumerus -49.3417 -3.74295 -86.4277
rradius 42.6075
rwrist 16.6823
rhand -5.2157 -35.0238
rfingers 7.12502
rthumb 20.5862 -63.9522
lclavicle 1.13059e-014 -3.97569e-015
lhumerus -44.0043 2.447 89.0475
lradius 39.1497
lwrist -12.3668
lhand -3.21239 -25.4645
lfingers 7.12502
lthumb 22.5101 3.24345
rfemur 7.62269 4.25463 17.6996
rtibia -3.18055e-015
rfoot -18.9996 -12.2302
rtoes -9.23724
lfemur -6.16458 -3.9905 -10.7272
ltibia 23.9846
lfoot -23.1912 12.3324
ltoes -55.7347
66
root -0.784194 18.6685 6.08197 2.12524 -0.582569 -3.09131
lowerback 9.57727 0.378528 0.993174
upperback -3.74645 0.665155 0.269764
thorax -9.37403 0.271485 -0.388206
lowerneck -9.59533 -1.80758 -1.36086
upperneck 20.7132 -2.9376 3.14065
head 8.04807 -1.2015 0.982738
rclavicle 1.24178e-014 5.56597e-015
rhumerus -49.3473 -3.75554 -86.4058
rradius 42.6089
rwrist 16.7268
rhand -5.24249 -34.9444
rfingers 7.12502
rthumb 20.5604 -63.8756
lclavicle 1.24178e-014 5.56597e-015
lhumerus -43.9985 2.4943 89.0429
lradius 39.1419
lwrist -12.4118
lhand -3.22168 -25.4925
lfingers 7.12502
lthumb 22.5012 3.21652
rfemur 7.61966 4.25284 17.6965
rtibia 2.06736e-014
rfoot -18.994 -12.2438
rtoes -9.26063
lfemur -6.16443 -3.983 -10.7348
ltibia 23.972
lfoot -23.16 12.3594
ltoes -55.8282
67
root -0.783843 18.6694 6.08351 2.13098 -0.582782 -3.08724
lowerback 9.58546 0.375847 0.99073
upperback -3.76012 0.661856 0.274054
thorax -9.39395 0.270029 -0.381805
lowerneck -9.55747 -1.81505 -1.38555
upperneck 20.6804 -2.93994 3.12811
head 8.03043 -1.20646 0.982745
rclavicle 5.29264e-015 -3.97569e-015
rhumerus -49.3835 -3.76143 -86.3888
rradius 42.6415
rwrist 16.6997
rhand -5.20104 -34.9257
rfingers 7.12502
rthumb 20.6002 -63.8526
lclavicle 5.29264e-015 -3.97569e-015
lhumerus -44.0424 2.48464 89.0659
lradius 39.1867
lwrist -12.3948
lhand -3.24987 -25.5084
lfingers 7.12502
lthumb 22.4741 3.20387
rfemur 7.61921 4.25231 17.6969
rtibia -1.27222e-014
rfoot -18.9788 -12.2931
rtoes -9.57689
lfemur -6.16414 -4.00668 -10.7439
ltibia 23.9709
lfoot -23.1698 12.3786
ltoes -55.8247
68
root -0.784061 18.6695 6.08604 2.12479 -0.56693 -3.09654
lowerback 9.58693 0.3729 1.00572
upperback -3.76412 0.659296 0.266348
thorax -9.39899 0.26757 -0.398045
lowerneck -9.52003 -1.8169 -1.3773
upperneck 20.6391 -2.94394 3.13334
head 8.00988 -1.20802 0.982944
rclavicle 5.46658e-015 0
rhumerus -49.4099 -3.77916 -86.3943
rradius 42.6893
rwrist 16.6786
rhand -5.13117 -34.9622
rfingers 7.12502
rthumb 20.6674 -63.8818
lclavicle 5.46658e-015 0
lhumerus -44.0974 2.39274 89.09
lradius 39.2698
lwrist -12.3193
lhand -3.29881 -25.468
lfingers 7.12502
lthumb 22.4272 3.24995
rfemur 7.63846 4.23654 17.7134
rtibia -4.77083e-015
rfoot -18.9856 -12.3262
rtoes -9.84023
lfemur -6.15083 -3.99585 -10.7297
ltibia 23.9683
lfoot -23.1771 12.3465
ltoes -55.7688
69
root -0.784079 18.669 6.08863 2.12063 -0.553436 -3.10951
lowerback 9.56621 0.365719 1.01887
upperback -3.75181 0.650908 0.265096
thorax -9.37328 0.262873 -0.405084
lowerneck -9.55884 -1.81123 -1.3808
upperneck 20.6531 -2.93862 3.14704
head 8.02176 -1.20391 0.988294
rclavicle -5.26158e-015 5.1684e-015
rhumerus -49.4005 -3.79396 -86.3869
rradius 42.7081
rwrist 16.7562
rhand -5.08744 -34.949
rfingers 7.12502
rthumb 20.7094 -63.8641
lclavicle -5.26158e-015 5.1684e-015
lhumerus -44.0993 2.35398 89.0962
lradius 39.2987
lwrist -12.2735
lhand -3.39272 -25.4351
lfingers 7.12502
lthumb 22.337 3.2937
rfemur 7.6547 4.22334 17.7303
rtibia 7.95139e-015
rfoot -18.9872 -12.3337
rtoes -9.99429
lfemur -6.13801 -3.91937 -10.7066
ltibia 23.9581
lfoot -23.1496 12.3139
ltoes -55.8427
70
root -0.784205 18.669 6.09087 2.14117 -0.564013 -3.10325
lowerback 9.53986 0.368288 1.01145
upperback -3.76106 0.652766 0.261426
thorax -9.36789 0.264107 -0.404952
lowerneck -9.57335 -1.81465 -1.39514
upperneck 20.6717 -2.9409 3.14505
head 8.03083 -1.20596 0.989727
rclavicle -2.96935e-015 -3.57812e-015
rhumerus -49.4147 -3.80987 -86.3773
rradius 42.7077
rwrist 16.8112
rhand -5.15835 -34.9339
rfingers 7.12502
rthumb 20.6413 -63.8564
lclavicle -2.96935e-015 -3.57812e-015
lhumerus -44.1336 2.3037 89.1065
lradius 39.3275
lwrist -12.2261
lhand -3.47592 -25.4531
lfingers 7.12502
lthumb 22.2571 3.28521
rfemur 7.6387 4.23272 17.7227
rtibia 1.59028e-015
rfoot -18.9684 -12.3421
rtoes -10.0867
lfemur -6.14556 -3.90829 -10.714
ltibia 23.9499
lfoot -23.1523 12.3437
ltoes -55.9005
